<svg width="23" height="23" viewBox="0 0 23 23" fill="none" xmlns="http://www.w3.org/2000/svg">
<path d="M22.5635 7.17419L12.0518 0.166353C11.6931 -0.054439 11.3101 -0.0564605 10.9481 0.166353L0.43637 7.17419C0.16684 7.35383 0 7.67475 0 7.99559V15.0034C0 15.3243 0.16684 15.6451 0.436415 15.8248L10.9481 22.8336C11.3069 23.0544 11.6898 23.0565 12.0519 22.8336L22.5636 15.8248C22.8331 15.6452 23 15.3243 23 15.0034V7.99559C23 7.67475 22.8331 7.35383 22.5635 7.17419V7.17419ZM12.4883 2.83593L20.2277 7.99559L16.7751 10.3059L12.4883 7.44368V2.83593ZM10.5117 2.83593V7.44368L6.22486 10.3059L2.7723 7.99559L10.5117 2.83593ZM1.97656 9.84381L4.45368 11.4995L1.97656 13.1552V9.84381ZM10.5117 20.1631L2.7723 15.0034L6.22486 12.6931L10.5117 15.5553V20.1631ZM11.5 13.8355L8.00888 11.4995L11.5 9.16356L14.9911 11.4995L11.5 13.8355ZM12.4883 20.1631V15.5553L16.7751 12.6931L20.2277 15.0034L12.4883 20.1631ZM21.0234 13.1552L18.5463 11.4995L21.0234 9.84381V13.1552Z" fill="#21243D"/>
</svg>