<svg width="23" height="23" viewBox="0 0 23 23" fill="none" xmlns="http://www.w3.org/2000/svg">
<path fill-rule="evenodd" clip-rule="evenodd" d="M20.19 0C21.7409 0 23 1.25916 23 2.81004V20.19C23 21.7408 21.7408 23 20.19 23H2.81004C1.25916 23 0 21.7408 0 20.19V2.81004C0 1.25916 1.25912 0 2.81004 0H20.19V0ZM7.20821 19.0144V8.87481H3.83727V19.0144H7.20821ZM19.3613 19.0144V13.1998C19.3613 10.0852 17.6984 8.63637 15.4809 8.63637C13.6929 8.63637 12.8919 9.61975 12.4434 10.3104V8.87481H9.07337C9.11806 9.8263 9.07337 19.0144 9.07337 19.0144H12.4434V13.3518C12.4434 13.0486 12.4652 12.7457 12.5545 12.529C12.7977 11.9237 13.3527 11.2966 14.2838 11.2966C15.5027 11.2966 15.9911 12.2268 15.9911 13.5893V19.0144H19.3613V19.0144ZM5.54552 3.98556C4.39219 3.98556 3.63867 4.74379 3.63867 5.7376C3.63867 6.71052 4.36928 7.48964 5.50091 7.48964H5.52265C6.69803 7.48964 7.42967 6.71052 7.42967 5.7376C7.40789 4.74519 6.7001 3.98771 5.54552 3.98556V3.98556Z" fill="#21243D"/>
</svg>