<svg viewBox="0 0 34 34" fill="none" xmlns="http://www.w3.org/2000/svg">
    <path d="M30.3334 17C30.3334 13.4638 28.9286 10.0724 26.4281 7.57189C23.9276 5.0714 20.5363 3.66665 17 3.66665C13.4638 3.66665 10.0724 5.0714 7.57195 7.57189C5.07147 10.0724 3.66671 13.4638 3.66671 17V23.6666H8.66671C9.10874 23.6666 9.53266 23.8422 9.84522 24.1548C10.1578 24.4674 10.3334 24.8913 10.3334 25.3333V30.3333H23.6667V25.3333C23.6667 24.8913 23.8423 24.4674 24.1549 24.1548C24.4674 23.8422 24.8913 23.6666 25.3334 23.6666H30.3334V17ZM27 27V32C27 32.442 26.8244 32.8659 26.5119 33.1785C26.1993 33.4911 25.7754 33.6666 25.3334 33.6666H8.66671C8.22468 33.6666 7.80076 33.4911 7.4882 33.1785C7.17564 32.8659 7.00004 32.442 7.00004 32V27H2.00004C1.55801 27 1.13409 26.8244 0.821529 26.5118C0.508969 26.1993 0.333374 25.7753 0.333374 25.3333V17C0.333374 7.79498 7.79504 0.333313 17 0.333313C26.205 0.333313 33.6667 7.79498 33.6667 17V25.3333C33.6667 25.7753 33.4911 26.1993 33.1786 26.5118C32.866 26.8244 32.4421 27 32 27H27ZM9.50004 20.3333C9.17174 20.3333 8.84665 20.2686 8.54333 20.143C8.24002 20.0174 7.96442 19.8332 7.73227 19.6011C7.50013 19.3689 7.31598 19.0933 7.19034 18.79C7.06471 18.4867 7.00004 18.1616 7.00004 17.8333C7.00004 17.505 7.06471 17.1799 7.19034 16.8766C7.31598 16.5733 7.50013 16.2977 7.73227 16.0655C7.96442 15.8334 8.24002 15.6493 8.54333 15.5236C8.84665 15.398 9.17174 15.3333 9.50004 15.3333C10.1631 15.3333 10.799 15.5967 11.2678 16.0655C11.7366 16.5344 12 17.1703 12 17.8333C12 18.4964 11.7366 19.1322 11.2678 19.6011C10.799 20.0699 10.1631 20.3333 9.50004 20.3333V20.3333ZM24.5 20.3333C24.1717 20.3333 23.8466 20.2686 23.5433 20.143C23.24 20.0174 22.9644 19.8332 22.7323 19.6011C22.5001 19.3689 22.316 19.0933 22.1903 18.79C22.0647 18.4867 22 18.1616 22 17.8333C22 17.505 22.0647 17.1799 22.1903 16.8766C22.316 16.5733 22.5001 16.2977 22.7323 16.0655C22.9644 15.8334 23.24 15.6493 23.5433 15.5236C23.8466 15.398 24.1717 15.3333 24.5 15.3333C25.1631 15.3333 25.799 15.5967 26.2678 16.0655C26.7366 16.5344 27 17.1703 27 17.8333C27 18.4964 26.7366 19.1322 26.2678 19.6011C25.799 20.0699 25.1631 20.3333 24.5 20.3333V20.3333Z" fill="#0B0914"/>
</svg>
